<mxfile host="app.diagrams.net" modified="2023-09-03T15:05:23.527Z" agent="Mozilla/5.0 (Windows NT 10.0; Win64; x64) AppleWebKit/537.36 (KHTML, like Gecko) Chrome/115.0.0.0 Safari/537.36 OPR/101.0.0.0" version="21.7.2" etag="nQL1jdbrdLtYwqv-s1-t" type="github">
  <diagram name="Page-1" id="ISs4GYw1-KNT4YMu_gWp">
    <mxGraphModel>
      <root>
        <mxCell id="0" />
        <mxCell id="1" parent="0" />
      </root>
    </mxGraphModel>
  </diagram>
</mxfile>
